0
SECTION
2
HEADER
9
$INSUNITS
70
4
9
$ACADVER
1
AC1014
9
$HANDSEED
5
FFFF
0
ENDSEC
0
SECTION
2
TABLES
0
TABLE
2
VPORT
5
8
100
AcDbSymbolTable
0
ENDTAB
0
TABLE
2
LTYPE
5
5
100
AcDbSymbolTable
0
LTYPE
5
14
100
AcDbSymbolTableRecord
100
AcDbLinetypeTableRecord
2
BYBLOCK
70
0
0
LTYPE
5
15
100
AcDbSymbolTableRecord
100
AcDbLinetypeTableRecord
2
BYLAYER
70
0
0
LTYPE
5
16
100
AcDbSymbolTableRecord
100
AcDbLinetypeTableRecord
2
DASHED
70
0
3
Dashed __ __ __ __ __ __ __ __ __ __ __ __ __ _
72
65
73
2
40
0.75
49
0.5
74
0
49
-0.25
74
0
0
ENDTAB
0
TABLE
2
LAYER
5
2
100
AcDbSymbolTable
70
2
0
LAYER
5
50
100
AcDbSymbolTableRecord
100
AcDbLayerTableRecord
2
0
70
0
62
7
6
CONTINUOUS
0
ENDTAB
0
TABLE
2
STYLE
5
3
100
AcDbSymbolTable
70
1
0
STYLE
5
11
100
AcDbSymbolTableRecord
100
AcDbTextStyleTableRecord
2
STANDARD
70
0
0
ENDTAB
0
TABLE
2
VIEW
5
6
100
AcDbSymbolTable
70
0
0
ENDTAB
0
TABLE
2
UCS
5
7
100
AcDbSymbolTable
70
0
0
ENDTAB
0
TABLE
2
APPID
5
9
100
AcDbSymbolTable
70
2
0
APPID
5
12
100
AcDbSymbolTableRecord
100
AcDbRegAppTableRecord
2
ACAD
70
0
0
ENDTAB
0
TABLE
2
DIMSTYLE
5
A
100
AcDbSymbolTable
70
1
0
ENDTAB
0
TABLE
2
BLOCK_RECORD
5
1
100
AcDbSymbolTable
70
1
0
BLOCK_RECORD
5
1F
100
AcDbSymbolTableRecord
100
AcDbBlockTableRecord
2
*MODEL_SPACE
0
BLOCK_RECORD
5
1B
100
AcDbSymbolTableRecord
100
AcDbBlockTableRecord
2
*PAPER_SPACE
0
ENDTAB
0
ENDSEC
0
SECTION
2
BLOCKS
0
BLOCK
5
20
100
AcDbEntity
100
AcDbBlockBegin
2
*MODEL_SPACE
0
ENDBLK
5
21
100
AcDbEntity
100
AcDbBlockEnd
0
BLOCK
5
1C
100
AcDbEntity
100
AcDbBlockBegin
2
*PAPER_SPACE
0
ENDBLK
5
1D
100
AcDbEntity
100
AcDbBlockEnd
0
ENDSEC
0
SECTION
2
ENTITIES
0
LINE
5
100
100
AcDbEntity
8
0
100
AcDbLine
10
-14.000000000000012
20
-4.9249999999999989
30
0
11
-14.000000000000012
21
4.9249999999999989
31
0
0
LINE
5
101
100
AcDbEntity
8
0
100
AcDbLine
10
-14.000000000000012
20
-4.9249999999999989
30
0
11
-2.0343495260607747
21
-4.9249999999999989
31
0
0
LINE
5
102
100
AcDbEntity
8
0
100
AcDbLine
10
-14.000000000000012
20
4.9249999999999989
30
0
11
-2.0343495260607769
21
4.9249999999999989
31
0
0
LWPOLYLINE
5
103
100
AcDbEntity
8
0
100
AcDbPolyline
90
4
70
1
43
0.0
10
13.000000000000075
20
-9
10
13.000000000000075
20
9
10
21.000000000000078
20
8.9999999999997051
10
21.000000000000078
20
-8.9999999999997051
0
LWPOLYLINE
5
104
100
AcDbEntity
8
0
100
AcDbPolyline
90
4
70
1
43
0.0
10
21.000000000000068
20
-8.8710438222161407
10
21.000000000000057
20
8.8710438222161407
42
-0.036675610195412982
10
28.03225806451637
20
8.8710438222171071
10
28.032258064516377
20
-8.8710438222170964
42
-0.036675610195412982
0
LWPOLYLINE
5
105
100
AcDbEntity
8
0
100
AcDbPolyline
90
4
70
1
43
0.0
10
28.032258064516206
20
-9
10
28.032258064516206
20
9
10
36.032258064516199
20
8.9999999999997051
10
36.032258064516199
20
-8.9999999999997051
0
LWPOLYLINE
5
106
100
AcDbEntity
8
0
100
AcDbPolyline
90
4
70
1
43
0.0
10
36.032258064516192
20
-8.8710438222161407
10
36.032258064516185
20
8.8710438222161407
42
-0.036675610195412982
10
43.064516129032498
20
8.8710438222171071
10
43.064516129032512
20
-8.8710438222170964
42
-0.036675610195412982
0
LWPOLYLINE
5
107
100
AcDbEntity
8
0
100
AcDbPolyline
90
4
70
1
43
0.0
10
43.064516129032327
20
-9
10
43.064516129032327
20
9
10
51.064516129032341
20
8.9999999999997051
10
51.064516129032341
20
-8.9999999999997051
0
LWPOLYLINE
5
108
100
AcDbEntity
8
0
100
AcDbPolyline
90
4
70
1
43
0.0
10
51.06451612903232
20
-8.8710438222161407
10
51.064516129032313
20
8.8710438222161407
42
-0.036675610195412982
10
58.096774193548626
20
8.8710438222171071
10
58.096774193548633
20
-8.8710438222170964
42
-0.036675610195412982
0
LWPOLYLINE
5
109
100
AcDbEntity
8
0
100
AcDbPolyline
90
4
70
1
43
0.0
10
58.09677419354847
20
-9
10
58.09677419354847
20
9
10
66.09677419354847
20
8.9999999999997051
10
66.09677419354847
20
-8.9999999999997051
0
LWPOLYLINE
5
110
100
AcDbEntity
8
0
100
AcDbPolyline
90
4
70
1
43
0.0
10
66.096774193548455
20
-8.8710438222161407
10
66.096774193548441
20
8.8710438222161407
42
-0.036675610195412982
10
73.129032258064768
20
8.8710438222171071
10
73.129032258064768
20
-8.8710438222170964
42
-0.036675610195412982
0
LWPOLYLINE
5
111
100
AcDbEntity
8
0
100
AcDbPolyline
90
4
70
1
43
0.0
10
73.129032258064584
20
-9
10
73.129032258064584
20
9
10
81.129032258064598
20
8.9999999999997051
10
81.129032258064598
20
-8.9999999999997051
0
LWPOLYLINE
5
112
100
AcDbEntity
8
0
100
AcDbPolyline
90
4
70
1
43
0.0
10
81.129032258064598
20
-8.8710438222161407
10
81.129032258064569
20
8.8710438222161372
42
-0.036675610195412982
10
88.161290322580882
20
8.8710438222171071
10
88.161290322580896
20
-8.8710438222170964
42
-0.036675610195412982
0
LWPOLYLINE
5
113
100
AcDbEntity
8
0
100
AcDbPolyline
90
4
70
1
43
0.0
10
88.161290322580726
20
-9
10
88.161290322580726
20
9
10
96.161290322580726
20
8.9999999999997051
10
96.161290322580726
20
-8.9999999999997051
0
LWPOLYLINE
5
114
100
AcDbEntity
8
0
100
AcDbPolyline
90
4
70
1
43
0.0
10
96.161290322580712
20
-8.8710438222161407
10
96.161290322580712
20
8.8710438222161407
42
-0.036675610195412982
10
103.19354838709701
20
8.8710438222171071
10
103.19354838709701
20
-8.8710438222170964
42
-0.036675610195412982
0
LWPOLYLINE
5
115
100
AcDbEntity
8
0
100
AcDbPolyline
90
4
70
1
43
0.0
10
103.19354838709685
20
-9
10
103.19354838709685
20
9
10
111.19354838709685
20
8.9999999999997051
10
111.19354838709685
20
-8.9999999999997051
0
LWPOLYLINE
5
116
100
AcDbEntity
8
0
100
AcDbPolyline
90
4
70
1
43
0.0
10
111.19354838709684
20
-8.8710438222161407
10
111.19354838709684
20
8.8710438222161407
42
-0.036675610195412982
10
118.22580645161315
20
8.8710438222171071
10
118.22580645161315
20
-8.8710438222170964
42
-0.036675610195412982
0
LWPOLYLINE
5
117
100
AcDbEntity
8
0
100
AcDbPolyline
90
4
70
1
43
0.0
10
118.22580645161297
20
-9
10
118.22580645161297
20
9
10
126.22580645161295
20
8.9999999999997051
10
126.22580645161295
20
-8.9999999999997051
0
LWPOLYLINE
5
118
100
AcDbEntity
8
0
100
AcDbPolyline
90
4
70
1
43
0.0
10
126.22580645161295
20
-8.8710438222161407
10
126.22580645161295
20
8.8710438222161407
42
-0.036675610195412982
10
133.25806451612925
20
8.8710438222171071
10
133.25806451612925
20
-8.8710438222170964
42
-0.036675610195412982
0
LWPOLYLINE
5
119
100
AcDbEntity
8
0
100
AcDbPolyline
90
4
70
1
43
0.0
10
133.25806451612911
20
-9
10
133.25806451612911
20
9
10
141.25806451612908
20
8.9999999999997051
10
141.25806451612908
20
-8.9999999999997051
0
LWPOLYLINE
5
120
100
AcDbEntity
8
0
100
AcDbPolyline
90
4
70
1
43
0.0
10
141.25806451612908
20
-8.8710438222161407
10
141.25806451612908
20
8.8710438222161407
42
-0.036675610195412982
10
148.29032258064541
20
8.8710438222171071
10
148.29032258064541
20
-8.8710438222170964
42
-0.036675610195412982
0
LWPOLYLINE
5
121
100
AcDbEntity
8
0
100
AcDbPolyline
90
4
70
1
43
0.0
10
148.29032258064524
20
-9
10
148.29032258064524
20
9
10
156.29032258064524
20
8.9999999999997051
10
156.29032258064524
20
-8.9999999999997051
0
LWPOLYLINE
5
122
100
AcDbEntity
8
0
100
AcDbPolyline
90
4
70
1
43
0.0
10
156.29032258064524
20
-8.8710438222161407
10
156.29032258064524
20
8.8710438222161407
42
-0.036675610195412982
10
163.32258064516154
20
8.8710438222171071
10
163.32258064516154
20
-8.8710438222170964
42
-0.036675610195412982
0
LWPOLYLINE
5
123
100
AcDbEntity
8
0
100
AcDbPolyline
90
4
70
1
43
0.0
10
163.32258064516137
20
-9
10
163.32258064516137
20
9
10
171.32258064516137
20
8.9999999999997051
10
171.32258064516137
20
-8.9999999999997051
0
LWPOLYLINE
5
124
100
AcDbEntity
8
0
100
AcDbPolyline
90
4
70
1
43
0.0
10
171.32258064516137
20
-8.8710438222161407
10
171.32258064516137
20
8.8710438222161478
42
-0.03667561019541276
10
178.35483870967764
20
8.8710438222171071
10
178.35483870967764
20
-8.8710438222171071
42
-0.03667561019541276
0
LWPOLYLINE
5
125
100
AcDbEntity
8
0
100
AcDbPolyline
90
4
70
1
43
0.0
10
178.35483870967749
20
-9
10
178.35483870967749
20
9
10
186.35483870967749
20
8.9999999999997051
10
186.35483870967749
20
-8.9999999999997051
0
LWPOLYLINE
5
126
100
AcDbEntity
8
0
100
AcDbPolyline
90
4
70
1
43
0.0
10
186.35483870967747
20
-8.8710438222161407
10
186.35483870967747
20
8.8710438222161443
42
-0.036675610195412982
10
193.38709677419376
20
8.8710438222171071
10
193.38709677419376
20
-8.8710438222171035
42
-0.036675610195412982
0
LWPOLYLINE
5
127
100
AcDbEntity
8
0
100
AcDbPolyline
90
4
70
1
43
0.0
10
193.38709677419362
20
-9
10
193.38709677419362
20
9
10
201.38709677419365
20
8.9999999999997051
10
201.38709677419365
20
-8.9999999999997051
0
LWPOLYLINE
5
128
100
AcDbEntity
8
0
100
AcDbPolyline
90
4
70
1
43
0.0
10
201.38709677419365
20
-8.8710438222161407
10
201.38709677419365
20
8.8710438222161478
42
-0.03667561019541276
10
208.41935483870992
20
8.8710438222171071
10
208.41935483870992
20
-8.8710438222171071
42
-0.03667561019541276
0
LWPOLYLINE
5
129
100
AcDbEntity
8
0
100
AcDbPolyline
90
4
70
1
43
0.0
10
208.41935483870975
20
-9
10
208.41935483870975
20
9
10
216.41935483870978
20
8.9999999999997051
10
216.41935483870978
20
-8.9999999999997051
0
LWPOLYLINE
5
130
100
AcDbEntity
8
0
100
AcDbPolyline
90
4
70
1
43
0.0
10
216.41935483870975
20
-8.8710438222161407
10
216.41935483870975
20
8.8710438222161443
42
-0.036675610195412982
10
223.45161290322605
20
8.8710438222171071
10
223.45161290322605
20
-8.8710438222171035
42
-0.036675610195412982
0
LWPOLYLINE
5
131
100
AcDbEntity
8
0
100
AcDbPolyline
90
4
70
1
43
0.0
10
223.45161290322585
20
-9
10
223.45161290322585
20
9
10
231.45161290322588
20
8.9999999999997051
10
231.45161290322588
20
-8.9999999999997051
0
LWPOLYLINE
5
132
100
AcDbEntity
8
0
100
AcDbPolyline
90
4
70
1
43
0.0
10
231.45161290322585
20
-8.8710438222161407
10
231.45161290322585
20
8.8710438222161443
42
-0.036675610195412982
10
238.48387096774215
20
8.8710438222171071
10
238.48387096774215
20
-8.8710438222171035
42
-0.036675610195412982
0
LWPOLYLINE
5
133
100
AcDbEntity
8
0
100
AcDbPolyline
90
4
70
1
43
0.0
10
238.48387096774201
20
-9
10
238.48387096774201
20
9
10
246.48387096774201
20
8.9999999999997051
10
246.48387096774201
20
-8.9999999999997051
0
LWPOLYLINE
5
134
100
AcDbEntity
8
0
100
AcDbPolyline
90
4
70
1
43
0.0
10
246.48387096774201
20
-8.8710438222161407
10
246.48387096774201
20
8.8710438222161478
42
-0.03667561019541276
10
253.51612903225828
20
8.8710438222171071
10
253.51612903225828
20
-8.8710438222171071
42
-0.03667561019541276
0
LWPOLYLINE
5
135
100
AcDbEntity
8
0
100
AcDbPolyline
90
4
70
1
43
0.0
10
253.51612903225814
20
-9
10
253.51612903225814
20
9
10
261.51612903225816
20
8.9999999999997051
10
261.51612903225816
20
-8.9999999999997051
0
LWPOLYLINE
5
136
100
AcDbEntity
8
0
100
AcDbPolyline
90
4
70
1
43
0.0
10
261.51612903225811
20
-8.8710438222161407
10
261.51612903225811
20
8.8710438222161443
42
-0.036675610195412982
10
268.54838709677443
20
8.8710438222171071
10
268.54838709677443
20
-8.8710438222171035
42
-0.036675610195412982
0
LWPOLYLINE
5
137
100
AcDbEntity
8
0
100
AcDbPolyline
90
4
70
1
43
0.0
10
276.54838709677426
20
-8.8710438222161407
10
276.54838709677426
20
8.8710438222161478
42
-0.03667561019541276
10
283.58064516129053
20
8.8710438222171071
10
283.58064516129053
20
-8.8710438222171071
42
-0.03667561019541276
0
LWPOLYLINE
5
138
100
AcDbEntity
8
0
100
AcDbPolyline
90
4
70
1
43
0.0
10
268.54838709677426
20
-9
10
268.54838709677426
20
9
10
276.54838709677426
20
8.9999999999997051
10
276.54838709677426
20
-8.9999999999997051
0
LWPOLYLINE
5
139
100
AcDbEntity
8
0
100
AcDbPolyline
90
4
70
1
43
0.0
10
283.58064516129042
20
-9
10
283.58064516129042
20
9
10
291.58064516129042
20
8.9999999999997051
10
291.58064516129042
20
-8.9999999999997051
0
LWPOLYLINE
5
140
100
AcDbEntity
8
0
100
AcDbPolyline
90
4
70
1
43
0.0
10
291.58064516129036
20
-8.8710438222161407
10
291.58064516129036
20
8.8710438222161443
42
-0.036675610195412982
10
298.61290322580669
20
8.8710438222171071
10
298.61290322580669
20
-8.8710438222171035
42
-0.036675610195412982
0
LWPOLYLINE
5
141
100
AcDbEntity
8
0
100
AcDbPolyline
90
4
70
1
43
0.0
10
298.61290322580652
20
-9
10
298.61290322580652
20
9
10
306.61290322580652
20
8.9999999999997051
10
306.61290322580652
20
-8.9999999999997051
0
LWPOLYLINE
5
142
100
AcDbEntity
8
0
100
AcDbPolyline
90
4
70
1
43
0.0
10
306.61290322580646
20
-8.8710438222161407
10
306.61290322580646
20
8.8710438222161443
42
-0.036675610195412982
10
313.64516129032279
20
8.8710438222171071
10
313.64516129032279
20
-8.8710438222171035
42
-0.036675610195412982
0
LWPOLYLINE
5
143
100
AcDbEntity
8
0
100
AcDbPolyline
90
4
70
1
43
0.0
10
313.64516129032262
20
-9
10
313.64516129032262
20
9
10
321.64516129032268
20
8.9999999999997051
10
321.64516129032268
20
-8.9999999999997051
0
LWPOLYLINE
5
144
100
AcDbEntity
8
0
100
AcDbPolyline
90
4
70
1
43
0.0
10
321.64516129032268
20
-8.8710438222161407
10
321.64516129032268
20
8.8710438222161478
42
-0.03667561019541276
10
328.67741935483889
20
8.8710438222171071
10
328.67741935483889
20
-8.8710438222171071
42
-0.03667561019541276
0
LWPOLYLINE
5
145
100
AcDbEntity
8
0
100
AcDbPolyline
90
4
70
1
43
0.0
10
336.67741935483878
20
-8.8710438222161407
10
336.67741935483883
20
8.8710438222161407
42
-0.036675610195412982
10
343.7096774193551
20
8.8710438222171071
10
343.70967741935499
20
-8.8710438222171035
42
-0.036675610195412982
0
LWPOLYLINE
5
146
100
AcDbEntity
8
0
100
AcDbPolyline
90
4
70
1
43
0.0
10
328.67741935483878
20
-9
10
328.67741935483878
20
9
10
336.67741935483878
20
8.9999999999997051
10
336.67741935483878
20
-8.9999999999997051
0
LWPOLYLINE
5
147
100
AcDbEntity
8
0
100
AcDbPolyline
90
4
70
1
43
0.0
10
343.70967741935488
20
-9
10
343.70967741935488
20
9
10
351.70967741935493
20
8.9999999999997051
10
351.70967741935493
20
-8.9999999999997051
0
LWPOLYLINE
5
148
100
AcDbEntity
8
0
100
AcDbPolyline
90
4
70
1
43
0.0
10
351.70967741935493
20
-8.8710438222161407
10
351.70967741935493
20
8.8710438222161478
42
-0.03667561019541276
10
358.7419354838712
20
8.8710438222171071
10
358.7419354838712
20
-8.8710438222171071
42
-0.03667561019541276
0
LWPOLYLINE
5
149
100
AcDbEntity
8
0
100
AcDbPolyline
90
4
70
1
43
0.0
10
358.74193548387098
20
-9
10
358.74193548387098
20
9
10
366.74193548387103
20
8.9999999999997051
10
366.74193548387103
20
-8.9999999999997051
0
LWPOLYLINE
5
150
100
AcDbEntity
8
0
100
AcDbPolyline
90
14
70
1
43
0.0
10
514
20
-4.9249999999999989
10
514
20
4.9249999999999989
10
502.03434952606074
20
4.9249999999999989
10
501.99995049781927
20
9.8140665198218962
10
500
20
9.7999950496593975
10
500
20
8.8500000000000014
10
494.03225806451616
20
8.8500000000000014
42
0.036675610195412205
10
487
20
8.8500000000000014
10
487
20
-8.8500000000000121
42
0.036675610195412205
10
494.03225806451616
20
-8.8499999999999996
10
500
20
-8.8499999999999996
10
500
20
-9.7999950496593975
10
501.99995049781927
20
-9.8140665198218962
10
502.03434952606079
20
-4.9249999999999989
0
LWPOLYLINE
5
151
100
AcDbEntity
8
0
100
AcDbPolyline
90
4
70
1
43
0.0
10
80.549999999999955
20
12.500000000000009
10
80.549999999999955
20
18.500000000000007
10
79.44999999999996
20
18.500000000000007
10
79.449999999999989
20
12.500000000000009
0
LWPOLYLINE
5
152
100
AcDbEntity
8
0
100
AcDbPolyline
90
4
70
1
43
0.0
10
79.449999999999989
20
12.500000000000011
10
79.44999999999996
20
15.700000000000012
10
75.549999999999969
20
15.700000000000012
10
75.549999999999969
20
12.500000000000011
0
LWPOLYLINE
5
153
100
AcDbEntity
8
0
100
AcDbPolyline
90
4
70
1
43
0.0
10
75.549999999999969
20
12.500000000000009
10
75.549999999999969
20
18.500000000000007
10
74.44999999999996
20
18.500000000000007
10
74.449999999999989
20
12.500000000000009
0
LWPOLYLINE
5
154
100
AcDbEntity
8
0
100
AcDbPolyline
90
4
70
1
43
0.0
10
74.449999999999989
20
12.500000000000011
10
74.44999999999996
20
15.700000000000012
10
70.549999999999969
20
15.700000000000012
10
70.549999999999969
20
12.500000000000011
0
LWPOLYLINE
5
155
100
AcDbEntity
8
0
100
AcDbPolyline
90
4
70
1
43
0.0
10
70.549999999999969
20
12.500000000000009
10
70.549999999999969
20
18.500000000000007
10
69.44999999999996
20
18.500000000000007
10
69.449999999999989
20
12.500000000000009
0
LWPOLYLINE
5
156
100
AcDbEntity
8
0
100
AcDbPolyline
90
4
70
1
43
0.0
10
69.449999999999989
20
12.500000000000011
10
69.44999999999996
20
15.700000000000012
10
65.549999999999969
20
15.700000000000012
10
65.549999999999969
20
12.500000000000011
0
LWPOLYLINE
5
157
100
AcDbEntity
8
0
100
AcDbPolyline
90
4
70
1
43
0.0
10
65.549999999999969
20
12.500000000000009
10
65.549999999999969
20
18.500000000000007
10
64.44999999999996
20
18.500000000000007
10
64.449999999999989
20
12.500000000000009
0
LWPOLYLINE
5
158
100
AcDbEntity
8
0
100
AcDbPolyline
90
4
70
1
43
0.0
10
64.449999999999989
20
12.500000000000011
10
64.44999999999996
20
15.700000000000012
10
60.549999999999969
20
15.70000000000001
10
60.549999999999969
20
12.500000000000009
0
LWPOLYLINE
5
159
100
AcDbEntity
8
0
100
AcDbPolyline
90
4
70
1
43
0.0
10
60.549999999999969
20
12.500000000000007
10
60.549999999999969
20
18.500000000000007
10
59.449999999999967
20
18.500000000000007
10
59.449999999999989
20
12.500000000000007
0
LWPOLYLINE
5
160
100
AcDbEntity
8
0
100
AcDbPolyline
90
4
70
1
43
0.0
10
59.449999999999989
20
12.500000000000009
10
59.449999999999967
20
15.70000000000001
10
55.549999999999969
20
15.70000000000001
10
55.549999999999969
20
12.500000000000009
0
LWPOLYLINE
5
161
100
AcDbEntity
8
0
100
AcDbPolyline
90
4
70
1
43
0.0
10
55.549999999999969
20
12.500000000000007
10
55.549999999999969
20
18.500000000000007
10
54.449999999999967
20
18.500000000000007
10
54.449999999999989
20
12.500000000000007
0
LWPOLYLINE
5
162
100
AcDbEntity
8
0
100
AcDbPolyline
90
4
70
1
43
0.0
10
54.449999999999989
20
12.500000000000009
10
54.449999999999967
20
15.70000000000001
10
50.549999999999969
20
15.70000000000001
10
50.549999999999969
20
12.500000000000009
0
LWPOLYLINE
5
163
100
AcDbEntity
8
0
100
AcDbPolyline
90
4
70
1
43
0.0
10
50.549999999999969
20
12.500000000000007
10
50.549999999999969
20
18.500000000000007
10
49.449999999999967
20
18.500000000000007
10
49.449999999999989
20
12.500000000000007
0
LWPOLYLINE
5
164
100
AcDbEntity
8
0
100
AcDbPolyline
90
4
70
1
43
0.0
10
49.449999999999989
20
12.500000000000009
10
49.449999999999967
20
15.70000000000001
10
45.549999999999969
20
15.70000000000001
10
45.549999999999969
20
12.500000000000009
0
LWPOLYLINE
5
165
100
AcDbEntity
8
0
100
AcDbPolyline
90
4
70
1
43
0.0
10
45.549999999999969
20
12.500000000000007
10
45.549999999999969
20
18.500000000000007
10
44.449999999999967
20
18.500000000000004
10
44.449999999999989
20
12.500000000000004
0
LWPOLYLINE
5
166
100
AcDbEntity
8
0
100
AcDbPolyline
90
4
70
1
43
0.0
10
44.449999999999989
20
12.500000000000007
10
44.449999999999967
20
15.700000000000006
10
40.549999999999969
20
15.700000000000006
10
40.549999999999969
20
12.500000000000007
0
LWPOLYLINE
5
167
100
AcDbEntity
8
0
100
AcDbPolyline
90
4
70
1
43
0.0
10
40.549999999999969
20
12.500000000000004
10
40.549999999999969
20
18.500000000000004
10
39.44999999999996
20
18.500000000000004
10
39.449999999999982
20
12.500000000000004
0
LWPOLYLINE
5
168
100
AcDbEntity
8
0
100
AcDbPolyline
90
4
70
1
43
0.0
10
39.449999999999982
20
12.500000000000007
10
39.449999999999967
20
15.700000000000006
10
35.549999999999969
20
15.700000000000006
10
35.549999999999969
20
12.500000000000007
0
LWPOLYLINE
5
169
100
AcDbEntity
8
0
100
AcDbPolyline
90
4
70
1
43
0.0
10
35.549999999999969
20
12.500000000000004
10
35.549999999999962
20
18.500000000000004
10
34.44999999999996
20
18.500000000000004
10
34.449999999999982
20
12.500000000000004
0
LWPOLYLINE
5
170
100
AcDbEntity
8
0
100
AcDbPolyline
90
4
70
1
43
0.0
10
34.449999999999982
20
12.500000000000007
10
34.449999999999967
20
15.700000000000006
10
30.549999999999965
20
15.700000000000006
10
30.549999999999965
20
12.500000000000007
0
LWPOLYLINE
5
171
100
AcDbEntity
8
0
100
AcDbPolyline
90
4
70
1
43
0.0
10
30.549999999999965
20
12.500000000000004
10
30.549999999999962
20
18.500000000000004
10
29.449999999999964
20
18.500000000000004
10
29.449999999999982
20
12.500000000000004
0
LWPOLYLINE
5
172
100
AcDbEntity
8
0
100
AcDbPolyline
90
4
70
1
43
0.0
10
29.449999999999982
20
12.500000000000007
10
29.449999999999967
20
15.700000000000006
10
25.549999999999965
20
15.700000000000005
10
25.549999999999965
20
12.500000000000004
0
LWPOLYLINE
5
173
100
AcDbEntity
8
0
100
AcDbPolyline
90
4
70
1
43
0.0
10
25.549999999999965
20
12.500000000000002
10
25.549999999999962
20
18.5
10
24.449999999999964
20
18.5
10
24.449999999999982
20
12.500000000000002
0
LWPOLYLINE
5
174
100
AcDbEntity
8
0
100
AcDbPolyline
90
4
70
1
43
0.0
10
24.449999999999982
20
12.500000000000004
10
24.449999999999967
20
15.700000000000005
10
20.549999999999965
20
15.700000000000005
10
20.549999999999965
20
12.500000000000004
0
LWPOLYLINE
5
175
100
AcDbEntity
8
0
100
AcDbPolyline
90
4
70
1
43
0.0
10
20.549999999999965
20
12.500000000000002
10
20.549999999999962
20
18.5
10
19.449999999999964
20
18.5
10
19.449999999999978
20
12.500000000000002
0
LWPOLYLINE
5
176
100
AcDbEntity
8
0
100
AcDbPolyline
90
4
70
1
43
0.0
10
19.449999999999978
20
12.500000000000004
10
19.449999999999964
20
15.700000000000005
10
15.549999999999963
20
15.700000000000005
10
15.549999999999963
20
12.500000000000004
0
LWPOLYLINE
5
177
100
AcDbEntity
8
0
100
AcDbPolyline
90
4
70
1
43
0.0
10
15.549999999999963
20
12.500000000000002
10
15.549999999999963
20
18.5
10
14.449999999999966
20
18.5
10
14.449999999999978
20
12.500000000000002
0
LWPOLYLINE
5
178
100
AcDbEntity
8
0
100
AcDbPolyline
90
4
70
1
43
0.0
10
14.449999999999978
20
12.500000000000004
10
14.449999999999966
20
15.700000000000005
10
10.549999999999963
20
15.700000000000005
10
10.549999999999963
20
12.500000000000004
0
LWPOLYLINE
5
179
100
AcDbEntity
8
0
100
AcDbPolyline
90
4
70
1
43
0.0
10
10.549999999999963
20
12.500000000000002
10
10.549999999999963
20
18.5
10
9.4499999999999655
20
18.5
10
9.4499999999999797
20
12.500000000000002
0
LWPOLYLINE
5
180
100
AcDbEntity
8
0
100
AcDbPolyline
90
4
70
1
43
0.0
10
9.4499999999999797
20
12.500000000000004
10
9.4499999999999655
20
15.700000000000005
10
5.5499999999999652
20
15.700000000000003
10
5.5499999999999661
20
12.500000000000002
0
LWPOLYLINE
5
181
100
AcDbEntity
8
0
100
AcDbPolyline
90
4
70
1
43
0.0
10
5.5499999999999661
20
12.5
10
5.5499999999999652
20
18.5
10
4.4499999999999655
20
18.5
10
4.4499999999999789
20
12.5
0
LWPOLYLINE
5
182
100
AcDbEntity
8
0
100
AcDbPolyline
90
4
70
1
43
0.0
10
366.74193548387103
20
8.8710438222161407
10
366.74193548387103
20
-8.8710438222161372
42
0.036675610195412781
10
373.7741935483873
20
-8.8710438222171071
10
373.7741935483873
20
8.8710438222171071
42
0.036675610195412781
0
LWPOLYLINE
5
183
100
AcDbEntity
8
0
100
AcDbPolyline
90
4
70
1
43
0.0
10
373.77419354838713
20
9
10
373.77419354838713
20
-9
10
381.77419354838719
20
-8.9999999999997051
10
381.77419354838719
20
8.9999999999997051
0
LWPOLYLINE
5
184
100
AcDbEntity
8
0
100
AcDbPolyline
90
4
70
1
43
0.0
10
381.77419354838719
20
8.8710438222161407
10
381.77419354838719
20
-8.8710438222161372
42
0.036675610195412781
10
388.80645161290346
20
-8.8710438222171071
10
388.80645161290346
20
8.8710438222171071
42
0.036675610195412781
0
LWPOLYLINE
5
185
100
AcDbEntity
8
0
100
AcDbPolyline
90
4
70
1
43
0.0
10
388.80645161290323
20
9
10
388.80645161290323
20
-9
10
396.80645161290329
20
-8.9999999999997051
10
396.80645161290329
20
8.9999999999997051
0
LINE
5
186
100
AcDbEntity
8
0
100
AcDbLine
10
-1.8297180523331216e-15
20
-9.7999950496593975
30
0
11
-1.8272358848859453e-15
21
-8.8499999999999996
31
0
0
LINE
5
187
100
AcDbEntity
8
0
100
AcDbLine
10
-1.7809889451458134e-15
20
8.8500000000000014
30
0
11
-1.7785067776986371e-15
21
9.7999950496593975
31
0
0
LINE
5
188
100
AcDbEntity
8
0
100
AcDbLine
10
-1.5265566588595902e-15
20
-9.7999950496593975
30
0
11
-1.9999504978192517
21
-9.8140665198218962
31
0
0
LINE
5
189
100
AcDbEntity
8
0
100
AcDbLine
10
-1.5265566588595902e-15
20
9.7999950496593975
30
0
11
-1.9999504978192517
21
9.8140665198218962
31
0
0
LINE
5
190
100
AcDbEntity
8
0
100
AcDbLine
10
12.999999999999993
20
-8.8500000000000014
30
0
11
12.999999999999993
21
8.8500000000000014
31
0
0
LINE
5
191
100
AcDbEntity
8
0
100
AcDbLine
10
-1.8272358848859453e-15
20
-8.8499999999999996
30
0
11
5.9677419354838657
21
-8.8499999999999996
31
0
0
LINE
5
192
100
AcDbEntity
8
0
100
AcDbLine
10
-1.7809889451458134e-15
20
8.8500000000000014
30
0
11
5.9677419354838657
21
8.8499999999999996
31
0
0
ARC
5
193
100
AcDbEntity
8
0
100
AcDbCircle
10
9.4838709677418169
20
39.021043822314184
30
0
40
48.000000000098041
210
0
220
0
230
1
100
AcDbArc
50
265.79916748815066
51
274.20083251184957
0
ARC
5
194
100
AcDbEntity
8
0
100
AcDbCircle
10
9.4838709677418169
20
-39.021043822314184
30
0
40
48.000000000098062
210
0
220
-0
230
1
100
AcDbArc
50
85.799167488150403
51
94.200832511849327
0
LWPOLYLINE
5
195
100
AcDbEntity
8
0
100
AcDbPolyline
90
4
70
1
43
0.0
10
80.549999999999955
20
12.500000000000011
10
84.449999999999989
20
12.500000000000014
10
84.44999999999996
20
15.700000000000014
10
80.549999999999955
20
15.700000000000012
0
LWPOLYLINE
5
196
100
AcDbEntity
8
0
100
AcDbPolyline
90
4
70
1
43
0.0
10
85.549999999999955
20
12.500000000000011
10
85.549999999999955
20
18.500000000000011
10
84.44999999999996
20
18.500000000000011
10
84.449999999999989
20
12.500000000000011
0
LWPOLYLINE
5
197
100
AcDbEntity
8
0
100
AcDbPolyline
90
4
70
1
43
0.0
10
85.549999999999955
20
12.500000000000014
10
89.449999999999989
20
12.500000000000014
10
89.44999999999996
20
15.700000000000014
10
85.549999999999955
20
15.700000000000014
0
LWPOLYLINE
5
198
100
AcDbEntity
8
0
100
AcDbPolyline
90
4
70
1
43
0.0
10
90.549999999999955
20
12.500000000000011
10
90.549999999999955
20
18.500000000000011
10
89.44999999999996
20
18.500000000000011
10
89.449999999999989
20
12.500000000000011
0
LWPOLYLINE
5
199
100
AcDbEntity
8
0
100
AcDbPolyline
90
4
70
1
43
0.0
10
90.549999999999955
20
12.500000000000014
10
94.449999999999989
20
12.500000000000014
10
94.44999999999996
20
15.700000000000014
10
90.549999999999955
20
15.700000000000014
0
LWPOLYLINE
5
200
100
AcDbEntity
8
0
100
AcDbPolyline
90
4
70
1
43
0.0
10
95.549999999999955
20
12.500000000000011
10
95.549999999999955
20
18.500000000000011
10
94.44999999999996
20
18.500000000000011
10
94.449999999999989
20
12.500000000000011
0
LINE
5
201
100
AcDbEntity
8
0
100
AcDbLine
10
-2.0343495260607747
20
-4.9249999999999989
30
0
11
-1.9999504978192517
21
-9.8140665198218962
31
0
0
LINE
5
202
100
AcDbEntity
8
0
100
AcDbLine
10
-2.0343495260607769
20
4.9249999999999989
30
0
11
-1.9999504978192517
21
9.8140665198218962
31
0
0
ENDSEC
0
SECTION
2
OBJECTS
0
DICTIONARY
5
C
100
AcDbDictionary
3
ACAD_GROUP
350
D
3
ACAD_MLINESTYLE
350
17
0
DICTIONARY
5
D
100
AcDbDictionary
0
DICTIONARY
5
1A
330
C
100
AcDbDictionary
0
DICTIONARY
5
17
100
AcDbDictionary
0
ENDSEC
0
EOF
